<svg xmlns="http://www.w3.org/2000/svg" width="492" height="135" fill="none"><g opacity=".5" fill-rule="evenodd" clip-rule="evenodd" fill="#B8B8B8"><path d="M263.016 45.69h3.578a1.056 1.056 0 001.049-1.054V37.53a1.056 1.056 0 00-1.049-1.054h-3.557a4.57 4.57 0 01-3.259-1.352 4.618 4.618 0 01-1.346-3.275V19.506h165.827c18.635 0 27.952 0 34.786 4.167a28.162 28.162 0 019.234 9.128c4.215 6.756 4.215 15.967 4.215 34.388 0 18.422 0 27.633-4.215 34.388a28.168 28.168 0 01-9.234 9.128c-6.834 4.167-16.151 4.167-34.786 4.167H67.742c-18.635 0-27.953 0-34.787-4.167a28.157 28.157 0 01-9.233-9.128c-4.215-6.755-4.215-15.966-4.215-34.388 0-18.421 0-27.632 4.215-34.388a28.151 28.151 0 019.233-9.128c6.834-4.167 16.152-4.167 34.787-4.167h167.612V30.08a1.923 1.923 0 001.364 1.845l14.571 4.553H212.35a18.385 18.385 0 00-13.026 5.428 18.568 18.568 0 00-5.395 13.093V82.71a4.64 4.64 0 01-1.348 3.272 4.595 4.595 0 01-3.257 1.355h-8.172a1.055 1.055 0 00-1.048 1.054v7.116a1.055 1.055 0 001.048 1.054h17.382a18.385 18.385 0 0013.026-5.429 18.568 18.568 0 005.395-13.092V49.927a4.651 4.651 0 011.352-3.269 4.605 4.605 0 013.253-1.358h12.756a1.048 1.048 0 011.049 1.054v32.287a18 18 0 001.357 6.858 17.923 17.923 0 003.866 5.813 17.789 17.789 0 0012.61 5.249h13.396a1.056 1.056 0 001.049-1.054v-7.115a1.056 1.056 0 00-1.049-1.055h-3.557a4.59 4.59 0 01-4.257-2.855 4.642 4.642 0 01-.348-1.772V50.317a4.637 4.637 0 011.339-3.267 4.584 4.584 0 013.245-1.36zM115.622 78.082V37.53a1.056 1.056 0 01.965-1.054h20.98a1.048 1.048 0 011.049 1.054v45.843a4.63 4.63 0 002.872 4.288c.563.23 1.167.345 1.775.34h4.595a4.604 4.604 0 003.253-1.359 4.65 4.65 0 001.352-3.269V37.53a1.055 1.055 0 011.049-1.054h20.98a1.048 1.048 0 011.049 1.054v40.51c0 4.91-1.941 9.619-5.395 13.092a18.385 18.385 0 01-13.026 5.428h-23.078a18.385 18.385 0 01-13.011-5.413 18.565 18.565 0 01-5.409-13.065zm227.151-40.55v57.992c0 .573.469 1.037 1.048 1.037h20.981c.579 0 1.049-.464 1.049-1.037V49.907c0-1.119.442-2.191 1.229-2.982a4.186 4.186 0 012.967-1.235h5.423c1.113 0 2.18.444 2.967 1.235a4.227 4.227 0 011.229 2.982v45.617c0 .573.47 1.037 1.049 1.037h20.981c.579 0 1.048-.464 1.048-1.037V49.907c0-1.119.442-2.191 1.229-2.982a4.185 4.185 0 012.967-1.235h5.423c1.113 0 2.181.444 2.967 1.235a4.226 4.226 0 011.229 2.982v45.617c0 .573.47 1.037 1.049 1.037h20.928c.58 0 1.049-.464 1.049-1.037V54.945a18.6 18.6 0 00-1.425-7.088 18.522 18.522 0 00-4.018-6 18.422 18.422 0 00-5.998-3.996 18.35 18.35 0 00-7.063-1.384h-77.259a1.048 1.048 0 00-1.049 1.054zm-68.038 40.55V54.944a18.567 18.567 0 015.417-13.062 18.386 18.386 0 0113.014-5.406h23.025a18.386 18.386 0 0113.008 5.41 18.565 18.565 0 015.413 13.058V78.04c0 4.91-1.94 9.619-5.395 13.092a18.385 18.385 0 01-13.026 5.428h-23.025a18.386 18.386 0 01-13.018-5.41 18.566 18.566 0 01-5.413-13.068zm27.641 9.255h4.605a4.595 4.595 0 003.257-1.356 4.64 4.64 0 001.348-3.272V50.317a4.64 4.64 0 00-1.348-3.272 4.595 4.595 0 00-3.257-1.356h-4.605a4.578 4.578 0 00-3.259 1.352 4.617 4.617 0 00-1.346 3.276v32.392a4.643 4.643 0 001.346 3.275 4.596 4.596 0 003.259 1.353zM70.433 36.742h36.174a1.056 1.056 0 011.049 1.054v20.988a1.056 1.056 0 01-1.049 1.054H65.828a4.594 4.594 0 00-3.256 1.355 4.639 4.639 0 00-1.349 3.272v4.438a4.65 4.65 0 001.348 3.276 4.604 4.604 0 003.257 1.362h40.779a1.056 1.056 0 011.049 1.054v21.177a1.056 1.056 0 01-1.049 1.054H70.433a18.386 18.386 0 01-13.01-5.413 18.566 18.566 0 01-5.41-13.065V55.21a18.566 18.566 0 015.413-13.058 18.385 18.385 0 0113.007-5.41z"/><path d="M425.056 0c10.513 0 18.875 0 25.609.575 6.9.59 12.769 1.823 18.104 4.69a44.122 44.122 0 0117.959 17.934c2.871 5.328 4.106 11.189 4.696 18.079.576 6.725.576 15.075.576 25.573v.676c0 10.5 0 18.849-.576 25.574-.59 6.89-1.825 12.751-4.696 18.079a44.127 44.127 0 01-17.959 17.934c-5.335 2.867-11.204 4.1-18.104 4.69-6.734.575-15.096.575-25.609.575H66.944c-10.513 0-18.875 0-25.61-.575-6.899-.59-12.768-1.823-18.103-4.69A44.128 44.128 0 015.272 111.18c-2.87-5.328-4.106-11.19-4.696-18.079C0 86.376 0 78.026 0 67.527v-.675c0-10.499 0-18.849.576-25.574.59-6.89 1.825-12.751 4.696-18.08A44.124 44.124 0 0123.231 5.266c5.335-2.867 11.204-4.1 18.104-4.69C48.069 0 56.43 0 66.945 0h358.111zM11.752 26.681C7.36 34.834 7.36 45.62 7.36 67.19s0 32.356 4.393 40.509a36.778 36.778 0 0014.966 14.945c8.164 4.387 18.964 4.387 40.564 4.387h357.436c21.6 0 32.4 0 40.564-4.387a36.78 36.78 0 0014.966-14.945c4.393-8.153 4.393-18.938 4.393-40.509 0-21.57 0-32.355-4.393-40.508a36.773 36.773 0 00-14.966-14.945c-8.164-4.387-18.964-4.387-40.564-4.387H67.282c-21.6 0-32.4 0-40.564 4.387a36.77 36.77 0 00-14.966 14.945z"/></g></svg>