<svg xmlns="http://www.w3.org/2000/svg" width="123" height="30" fill="none"><g opacity=".5"><rect x="1.644" y="1.644" width="119.711" height="26.31" rx="11.511" stroke="#B8B8B8" stroke-width="3.289"/><path fill-rule="evenodd" clip-rule="evenodd" d="M14.142 5.92a8.88 8.88 0 000 17.76h95.374a8.88 8.88 0 100-17.76H14.142zm40.733 11.658c-.82-.64-1.23-1.526-1.23-2.658 0-1.133.41-2.019 1.23-2.658.819-.64 1.958-.96 3.417-.96 1.459 0 2.598.32 3.417.96.82.64 1.23 1.525 1.23 2.658 0 1.132-.41 2.018-1.23 2.658-.82.64-1.958.959-3.417.959-1.459 0-2.598-.32-3.417-.96zm1.518-4.057c-.446.346-.67.813-.67 1.399 0 .586.224 1.056.67 1.409.453.346 1.086.52 1.899.52s1.442-.174 1.889-.52c.452-.353.679-.823.679-1.41 0-.585-.227-1.052-.68-1.398-.446-.353-1.075-.53-1.888-.53s-1.446.177-1.899.53zm-30.81-2.098h-3.636l-1.81 5.775-1.848-5.775h-3.637v6.994h1.989v-5.865l2.068 5.865h2.808l2.068-5.865v5.865h1.989l.01-6.994zm1.677 0v6.994h7.314v-1.619h-5.236V15.62h3.937v-1.518h-3.937v-1.06h5.046v-1.618h-7.125zm14.711 0h2.079v6.994h-2.08V15.71h-4.017v2.708h-2.078v-6.994h2.078v2.588h4.017v-2.588zm3.16 0v1.698h2.949v5.296h2.078v-5.296h2.948v-1.698h-7.974zm26.007.59c-.547-.394-1.24-.59-2.079-.59h-4.846v6.994h2.079V16.04h2.767c.886 0 1.592-.177 2.119-.53.526-.36.789-.936.789-1.728 0-.793-.276-1.383-.83-1.769zm-1.25 1.768c0 .44-.31.66-.929.66h-2.668v-1.32h2.668c.62 0 .93.22.93.66zm9.588 2.058l2.018.1c-.14.853-.563 1.499-1.269 1.939-.699.44-1.658.659-2.877.659-1.453 0-2.578-.316-3.378-.95-.8-.639-1.199-1.528-1.199-2.667 0-1.14.39-2.025 1.17-2.658.779-.64 1.871-.96 3.277-.96 1.152 0 2.088.224 2.808.67.719.44 1.159 1.04 1.319 1.799l-1.999.13c-.113-.274-.363-.493-.75-.66-.386-.166-.845-.25-1.378-.25-.76 0-1.346.177-1.759.53-.406.346-.61.813-.61 1.399 0 .593.214 1.062.64 1.409.433.346 1.053.52 1.859.52.58 0 1.049-.094 1.409-.28.366-.187.606-.43.719-.73zm2.463-4.416v1.698h2.948v5.296h2.078v-5.296h2.948v-1.698h-7.974zm14.866 3.427c1.485.133 2.228.686 2.228 1.659 0 .593-.263 1.059-.79 1.398-.526.34-1.312.51-2.358.51H90.99v-6.994h4.896c.88 0 1.572.173 2.079.52.513.346.769.799.769 1.358 0 .873-.643 1.389-1.928 1.549zm-3.738-1.829v1.11h2.718c.273 0 .487-.05.64-.15.153-.1.23-.237.23-.41 0-.367-.29-.55-.87-.55h-2.718zm2.608 3.797c.46 0 .786-.043.98-.13.2-.086.3-.236.3-.45a.464.464 0 00-.29-.459c-.194-.086-.49-.13-.89-.13h-2.708v1.17h2.608zm4.136-1.898c0 1.132.409 2.018 1.229 2.658.819.64 1.958.959 3.417.959 1.459 0 2.598-.32 3.417-.96.82-.639 1.229-1.525 1.229-2.657 0-1.133-.409-2.019-1.229-2.658-.819-.64-1.958-.96-3.417-.96-1.459 0-2.598.32-3.417.96-.82.64-1.23 1.525-1.23 2.658zm2.748 1.409c-.447-.353-.67-.823-.67-1.41 0-.585.223-1.052.67-1.398.453-.353 1.085-.53 1.898-.53s1.442.177 1.889.53c.453.346.679.813.679 1.399 0 .586-.226 1.056-.679 1.409-.447.346-1.076.52-1.889.52s-1.445-.174-1.898-.52z" fill="#B8B8B8"/></g></svg>