<svg xmlns="http://www.w3.org/2000/svg" width="500" height="107" fill="none"><g opacity=".5" fill="#B8B8B8"><path d="M0 97.67c.681 1.021 1.021 1.702.34 2.723C0 99.372 0 98.691 0 97.67zM475.415 0c0 .34 0 1.02-.341 1.361-.34-.34-.34-.34-.34-.68s.341-.681.681-.681c-.34 0-.34 0 0 0zm13.273 17.697c-.34 0-.34-.34 0 0 .681-1.702 1.362-3.063 2.383-4.424 0 .34 0 .34.34.68 0 1.022.681 1.362 1.702 1.702.68 0 1.361 0 2.041.34.681 0 1.022.34 1.022 1.021h-.341c-.34.34-.681.34-.681.34 0 .681 1.022 1.022.681 1.702-.68 0 0 .68-.34 1.021-.681 0-.681-.68-1.021-1.02-.34-.681-1.021-1.022-1.361-1.702a3.09 3.09 0 00-3.403 0c-.341 0-.681.34-1.022.34zm-14.636 21.78c0 .34 0 .34.34.68 0 0 .341.341 0 .341-.68 1.702-1.702 3.403-2.722 4.765h-.341c-.34 0-.68-.34-.34-.681 1.021-1.702 1.702-3.403 3.063-5.105z"/><path d="M470.652 44.581c0 .34.34.68.68.68 0 1.022-.68 1.702-1.701 2.043-.341 0-.341-.34-.341-.68.681-.681 1.021-1.362 1.362-2.043zm12.929-23.821c0-.34 0-.34-.34-.68 0-.341.34-1.022 1.021-1.022 0 1.021-.34 1.362-.681 1.702z"/><path d="M469.628 46.623c0 .34.34.34.34.68 0 .341 0 .341-.34.341s-.34 0-.681-.34c.341-.68.341-.68.681-.68zm-13.952-12.591h-15.314c-1.361 0-2.382.34-3.063 1.361-.68 1.021-1.361 2.382-2.042 3.403-5.785 9.529-11.57 19.398-17.355 28.927-1.362 2.382-2.723 4.764-4.424 7.487 0-1.021-.341-1.362-.341-2.042-.68-2.723-1.021-5.105-1.361-7.487l-2.042-11.23c-1.021-5.786-2.042-11.911-3.063-17.697-.34-1.02-1.02-2.041-2.382-2.382-1.361-.34-2.722-.34-4.084-.34h-5.445a25.138 25.138 0 00-7.146 0c-2.723.34-4.424 2.723-4.084 5.445 0 .68.681 1.361.341 2.042-18.037-12.251-36.754-10.89-55.471-2.382.34-2.723-1.702-5.445-4.765-5.445-6.466 0-13.271-.34-19.737-.34-4.765-.34-9.87 0-14.634 0-2.042 0-4.424-.34-6.806 0-1.361 0-2.382.68-2.722 2.041-.681 2.042-1.362 4.084-1.702 6.126-.34 2.042-1.021 4.084-1.361 6.125-.341-.68-.681-1.02-1.021-1.36-4.424-5.446-9.869-9.19-16.675-11.571-7.147-2.383-14.294-2.723-21.78-2.042-7.828.34-15.314 2.722-22.121 6.806-7.827 4.764-12.931 11.23-16.334 19.398-1.702 3.743-2.042 7.827-2.383 11.91 0 2.723 0 5.105.681 7.828.681 2.042 1.021 4.083 1.702 6.125h-10.21c-1.361.34-1.361-.34-1.021-1.361.341-2.042 1.021-4.424 1.361-6.466 2.042-8.167 3.744-16.335 5.786-24.502 1.021-4.424 2.042-9.189 3.063-13.613.68-1.701 0-3.062-1.021-4.083-1.362-1.362-2.723-1.702-4.424-1.702h-11.571c-2.722 0-3.743.68-4.424 3.403-1.021 5.105-2.382 9.87-3.403 14.974-.34 1.701-.681 3.743-1.361 5.445-.341-.34-.341-1.021-.341-1.361-1.701-5.105-4.424-9.53-8.507-13.273-4.084-3.743-8.168-6.465-13.273-7.827-11.23-3.403-22.46-3.063-33.35 0-6.126 1.702-11.57 4.765-16.335 9.189-1.361 1.36-3.063 2.722-4.424 4.424.68-2.382 1.02-4.765 1.701-7.147.34-1.361.681-2.382.681-3.743 0-2.042-1.701-4.084-3.743-4.084-3.063 0-6.126-.34-9.189-.34-3.403 0-6.806 0-10.209.34-1.701.34-3.063 1.021-4.084 2.382-3.062 5.105-5.785 10.21-8.848 14.974-4.424 6.806-8.848 13.953-12.931 21.1-.34.34-.681 1.02-1.362 1.36 0-1.02-.34-2.041-.34-3.062-.68-5.105-1.361-9.87-2.042-14.634-.34-3.743-1.02-7.487-1.702-11.23-.34-2.723-.34-5.785-1.36-8.508-.681-1.701-1.362-2.382-3.064-2.382H19.738c-4.424 0-4.764.34-5.785 4.424-2.042 7.827-3.744 15.654-5.445 23.481C5.785 73.168 2.722 85.42 0 97.67v2.723c1.02 1.701 2.042 3.062 2.382 4.083 4.424.341 9.189.341 13.953 0 1.702-.34 2.722-1.021 3.063-2.722 1.361-6.126 3.063-12.251 4.424-18.377.68-2.042 1.02-4.424 1.701-6.806.34.68.34 1.02.34 1.701l2.043 14.293c.34 2.723 1.02 5.786 1.36 8.508.341 2.042 1.702 3.063 3.064 3.403h13.272c2.042 0 3.403-.68 4.424-2.382 4.424-7.487 9.188-14.973 13.612-22.46.34-.34.68-1.021 1.361-1.362-1.36 6.807-3.062 13.613-4.764 20.079-.68 2.722 1.02 6.466 4.424 6.466h12.932c3.063 0 3.743-.341 4.424-3.403.68-2.723 1.361-5.786 2.042-8.508.68-3.744 1.361-7.827 2.722-11.911 0 .68.34 1.02.34 1.361.681 2.723 1.702 5.445 3.404 7.827 4.424 6.806 10.549 10.89 18.036 13.613 4.424 1.701 8.848 2.042 13.272 2.382 5.445.34 10.89 0 16.335-1.021 6.466-1.021 12.251-3.743 17.356-7.487 2.382-2.042 4.424-4.084 6.466-6.126 0-.34.34-1.02.681-.68.34.34 0 .68 0 1.02-.681 2.383-1.021 4.765-1.702 7.147-.68 2.383 1.702 5.445 4.424 5.445h35.733c2.382 0 3.403-1.021 4.084-3.403l1.02-4.083c8.508 5.785 10.89 6.806 18.717 8.167 11.571 1.701 23.142.681 34.032-4.424 5.104-2.382 9.528-5.785 13.272-10.21 4.083-4.764 6.806-10.209 8.167-16.334.681-4.424 1.361-9.189.34-13.953-.68-2.723-1.701-5.105-2.382-7.827 3.403.68 6.807.68 10.21.68-.341 1.362-.681 3.063-1.021 4.424l-6.126 25.524c-1.361 5.104-2.382 10.21-3.744 15.314-1.021 3.063 1.362 6.466 4.425 6.466h13.272c2.042 0 2.722-.681 3.403-2.723.681-1.361 1.021-2.722 1.361-4.424 1.362-5.105 2.382-9.869 3.403-14.974 2.042-8.848 4.424-18.036 6.466-26.884.681-3.063.681-3.063 3.744-2.382h.34c-.681 1.361-1.702 2.722-2.382 4.424-3.063 7.827-4.084 15.994-1.702 24.162 1.702 6.466 5.105 11.57 10.209 15.654 6.126 5.105 13.613 7.487 21.78 8.168 7.147.34 14.294 0 21.1-1.702 11.23-3.063 20.078-9.188 25.863-19.057.681-1.021 1.702-2.383 2.382-3.744 1.021 6.466 2.382 12.932 3.744 19.398.68 3.063 1.701 3.743 4.764 3.743h14.634c2.722 0 4.764-.34 6.125-2.722l12.251-19.398c4.424-7.146 8.849-14.633 13.613-21.78 4.084-6.466 8.167-12.932 12.591-19.398 2.042-2.382-.34-7.146-3.403-7.146zm-307.3 43.22c-2.723 3.743-6.126 6.465-10.89 7.827-5.105 1.36-10.21 2.042-15.655.68-5.785-1.361-9.528-4.424-11.23-10.21-.681-1.36-1.021-2.722-.68-4.423.34-5.445 2.041-10.21 6.125-13.953 3.063-2.722 6.806-4.764 10.89-5.445 5.445-1.02 10.55-1.361 15.654.34 5.786 2.042 9.189 7.147 9.189 13.273 0 4.424-1.021 8.167-3.403 11.91zm106.177 3.403c-4.424 3.743-9.87 5.104-15.655 5.104-.34.68-.68.68-1.021.68-3.403 0-6.466 0-9.528-1.7-5.445-2.383-8.168-6.807-8.508-12.933-.34-9.868 6.466-18.036 15.994-20.078 5.105-1.02 10.21-1.361 15.314 0 6.126 1.702 9.869 5.445 10.21 11.911.68 6.806-1.361 12.592-6.806 17.016zm119.449-13.273c-.341 5.445-2.383 9.87-6.466 13.613-3.744 3.403-8.508 4.764-13.613 5.445h-3.063c-3.743 0-7.486-.34-10.89-2.382-5.104-3.063-7.486-7.487-7.146-13.272.34-5.105 2.042-9.87 5.445-13.613 2.382-2.722 5.785-4.084 9.188-5.105 5.785-1.36 11.571-1.701 17.016 0 7.146 2.383 10.209 8.168 9.529 15.314zm116.045-40.838c-.34 0-.68-.34-1.02-.68.68 0 1.361.34 1.701.34-.34 0-.34 0-.681.34zM478.819 8.168s.34 0 0 0c.68-.681 1.02-.68 1.361-.34-.341.34-.681.34-1.361.34.34 0 .34 0 0 0z"/><path d="M480.18 7.828h-1.021c.34-.34.68-.68 1.021 0z"/><path d="M498.556 9.19c0-.34-.34-.68-.68-1.021-4.765-4.764-14.294-5.785-19.739-2.042l-4.083 3.063c-1.361 1.02-2.382 1.02-3.403 0-.681-.68-1.021-1.361 0-2.042 2.382-1.361 3.403-3.743 4.424-6.126-.341 0 0-.68-.341-.68-1.361 2.382-3.063 3.743-4.764 4.424-2.042.34-3.743 1.701-4.764 3.403-.34.68-1.021 1.361-2.042 1.02-.681-.68-.341-1.36-.341-2.041v-.34c-1.02.34-1.021 1.36-1.361 2.382-.34 1.02-1.021 2.042-2.382 2.382-.681.34-1.021.68-1.361 1.021-1.021 2.042-3.063 3.743-4.424 5.445-.681 1.02-2.042 2.042-1.702 3.403.681 4.424 3.403 8.508 8.168 9.529 1.361.34 2.722.68 3.743 2.042.341.34.681 1.02 1.361 1.36 1.361 1.362 3.063 1.362 4.765.341.68-.34 1.021-1.02 1.701-1.361 1.021-1.361 2.383-2.382 4.084-3.063 1.702-.34 3.063-1.701 4.084-3.063h-.681c-1.021.34-1.701 0-1.701-1.02 0-1.021.68-1.702 1.701-1.702h1.021c2.382 0 3.744-1.361 4.424-3.403 0-.34 0-.68-.34-.68-.681 1.02-1.021 1.7-2.042 2.381-.681.68-1.021.34-1.702 0-.68-.34-.34-1.02 0-1.361.341-.34.681-1.02 1.021-1.361 2.042-2.042 4.084-3.744 5.105-6.466.34-1.021 1.361-1.361 2.382-1.021 1.021.34 1.702.34 2.382-.34.341 0 .681-.34 1.021 0 .34.34-.34.68-.34 1.02-.34 0-.34 0-.34.34 2.382-.68 4.084 0 6.125 1.362.681.34.681.68.341 1.361v.34c-.341.681-.681.341-1.021.341h-.341s.341.34.341.68c.34.34.68 1.021.34 1.362v.34c0 .68-.681 0-1.021 0-.34 0-.34 0-.34.34 0 1.021 0 1.021-.341 1.021-.34.34-.68.34-1.361.34-1.701-.68-3.063-1.02-4.764-1.36-.681 0-.681 0-.681-.34-.34 0-.34-.341-.34-.681v-.681c-1.361 2.382-3.063 4.424-3.403 7.146 0 1.021-.34 1.702-1.021 2.383-1.021 1.02-1.702 2.041-2.723 3.062-2.722 3.063-5.104 6.466-7.146 9.87-.34.34-.34.34-.34.68.34-.34.34-.68.68-1.02.34 0 .681-.681 1.021-.341.341.34 0 .68 0 1.02-1.021 2.043-2.042 4.425-3.403 6.467-.681 1.02-1.361 1.701-2.382 2.041-3.403 1.362-6.126 3.063-8.168 6.126-.34.34-.34.68-1.021.34-.34-.34-.34-.68-.34-1.02 1.361-2.723 3.403-5.105 6.466-5.786 1.021-.34 1.702-1.02 2.722-1.361l-.34-.34-3.063 1.02c-2.382.681-4.083 2.042-5.445 4.084-1.361 2.042-2.722 4.084-4.084 6.466-3.062 4.765-5.785 9.87-8.507 14.634-2.382 3.743-4.764 7.486-6.466 11.23-1.361 2.722-1.021 4.084 1.021 6.466 4.424 4.424 9.869 7.146 15.995 9.188 1.361.34 2.382 0 3.403-1.361 3.063-4.424 5.785-9.188 8.508-13.613 3.403-6.125 7.146-12.25 10.549-18.376 1.702-2.383 2.722-5.445 2.042-8.508-.34-2.042-.341-4.084.68-5.785 1.021-2.383 2.382-4.424 3.403-6.807 2.383-4.424 4.765-8.848 5.786-13.612.34-1.021.681-1.702 1.361-2.382 3.063-3.063 4.424-6.466 5.445-10.55 1.021-3.403 0-6.806-1.021-10.21zm-1.021 2.722c-.34 1.021-.68 1.362-1.701 1.021-1.361-.68-2.382-1.361-3.063-2.722-1.021-2.042-3.063-3.403-4.764-4.424-1.362-.68-2.723 0-4.425.34.681.68 1.702 1.021 2.723 1.361.681 0 1.361.34 2.042.68 1.021.682 1.021 1.362.681 2.383-.341 1.021-1.022 1.021-2.043.68-1.361-.34-2.382-1.02-3.403-1.36v.34c1.021 1.361 1.021 2.042-.68 2.382-1.021.34-2.042.34-3.403 0 1.021-.68-.341-1.702.68-2.382l-.34-.34c-1.702-.681-.68-1.021-1.021-1.702-.68 0-1.361.68-2.042.34 2.723-3.063 7.487-4.424 11.571-3.743 3.063.34 5.785 1.361 7.827 3.743 1.021 1.021 1.702 2.042 1.361 3.403zm-52.408 72.486c-1.02 1.702-1.361 3.404-2.382 4.765-.681-1.702 0-2.723.341-4.084 0-.34.34-1.02.68-1.361.34-.34.341-.68 1.021-.34.341.34.681.68.34 1.02zm47.644-58.873c-.34 1.02-1.361 1.02-2.042.68-.34-.34-.681-.34-.681.34.341.681 1.021.681 1.362 1.702-2.042-.34-3.744-1.361-5.105-2.722-.34-.34-.68-1.361-.68-2.042 0-1.021.68-1.702 1.701-1.361 1.361.34 3.063 1.02 4.424 1.701.68.34 1.361.68 1.021 1.702zm1.361-1.361c-2.042-1.021-4.084-2.383-6.466-3.404l-.34-.34c0-.34.34-.34.34-.34 2.042 0 4.424 0 5.785 2.042 1.021.34 1.702.34 2.042 1.701 0 .68-.68.68-1.361.34z"/></g></svg>