<svg xmlns="http://www.w3.org/2000/svg" width="500" height="52" fill="none"><path d="M41.838 52c28.981 0 34.593-8.566 34.593-17.266v-.944c0-10.252-7.53-14.77-27.916-15.31l-10.087-.202c-8.95-.203-10.796-1.484-10.796-3.44v-.068c0-1.82 1.136-3.17 9.376-3.17h.355c8.95 0 9.944 2.833 10.158 4.654h26.992v-.472C74.513 7.486 68.19 0 40.773 0h-7.814C7.885 0 .852 6.407.852 15.242v.607c0 7.892 4.902 15.04 26.14 15.58l10.513.27c10.016.337 11.01 1.956 11.01 4.047v.135c0 2.09-1.705 4.046-10.229 4.046h-.284c-9.305 0-10.37-3.777-10.584-6.137H0v.607C0 40.872 3.054 52 33.811 52h8.027zm66.183-.944h23.938V32.643h30.33v18.413h24.009V.876h-24.009v17.132h-30.33V.877h-23.938v50.179zm135.722 0V29.878l23.511 21.178h31.255l-31.61-27.518L298.011.877h-29.407l-24.861 18.682V.877h-23.938v50.179h23.938zm129.761-20.773h-14.917l7.387-15.445 7.53 15.445zm10.086 20.773h26.566L383.093.876h-33.101l-25.429 50.18h24.222l3.267-6.947h28.2l3.338 6.947zM439.836.877v50.179h23.582V32.374h35.943v-13.22h-35.943v-4.99H500V.876h-60.164z" opacity=".5" fill="#B8B8B8"/></svg>