<svg xmlns="http://www.w3.org/2000/svg" width="452" height="164" fill="none"><g opacity=".5" clip-path="url(#clip0_1198_399)" fill="#B8B8B8"><path d="M283.116 164.001c-8.089 0-9.073-3.568-9.073-5.575v-.223h5.028c.109 1.004.656 2.453 4.591 2.453h.328c4.044 0 4.482-.781 4.482-1.672 0-.892-.437-1.45-4.045-1.561l-2.623-.112c-5.794-.223-7.543-2.118-7.543-4.571v-.223c0-2.341 1.421-4.794 8.417-4.794h1.421c7.324 0 8.964 2.564 8.964 5.017v.223h-5.029c-.109-.557-.437-1.895-4.481-1.895h-.328c-3.717 0-4.045.669-4.045 1.338s.438 1.338 3.608 1.338h2.623c5.794.111 8.198 1.56 8.198 4.682v.335c0 2.564-1.311 5.24-9.072 5.24h-1.421zm25.578-12.265h-6.668v-3.679h18.255v3.679h-6.668v12.041h-4.919v-12.041zm30.717 12.265c-8.308 0-9.62-5.352-9.62-8.362v-7.693h4.81v7.358c0 2.007.874 4.571 5.137 4.571 4.154 0 5.029-2.564 5.029-4.571v-7.358h4.809v7.693c0 3.01-1.53 8.362-9.51 8.362h-.655zm20.223-16.055h10.275c8.963 0 10.931 3.902 10.931 7.47v.669c0 3.345-1.858 7.693-10.822 7.693h-10.384v-15.832zm4.809 12.041h5.028c5.466 0 6.231-2.453 6.231-4.014v-.111c0-1.561-.656-4.014-6.231-4.014h-5.028v8.139zm30.716 3.79h-4.81v-15.72h4.81v15.72zm21.425-16.054c9.728 0 10.821 5.017 10.821 7.804v.669c0 2.787-1.093 7.915-10.821 7.915h-.875c-9.728 0-10.822-5.128-10.822-7.915v-.669c0-2.787 1.094-7.804 10.822-7.804h.875zm5.793 7.915c0-1.784-.984-4.125-6.231-4.125-5.356 0-6.23 2.341-6.23 4.125v.223c0 1.784.984 4.237 6.23 4.237 5.138 0 6.231-2.453 6.231-4.237v-.223zm4.482-136.684h-48.097v86.292c0 1.115-1.531 1.226-1.749.111l-15.085-81.386c-.765-3.01-3.389-5.017-6.34-5.017h-78.485c-3.607 0-6.559 3.01-6.559 6.689v78.711c0 1.115-1.53 1.226-1.749.223l-15.303-80.16c-.547-3.122-3.28-5.463-6.45-5.463H108.218l-20.223 90.974c-.218.892-1.53.892-1.749 0L66.133 18.954H18.036l22.846 93.093c.766 3.01 3.389 5.017 6.34 5.017h79.908c3.06 0 5.684-2.119 6.34-5.017l20.331-83.17a4.943 4.943 0 014.81-3.791h2.186l-22.518 91.978h48.097l20.222-90.975c.219-.892 1.531-.892 1.749 0l19.02 85.735c.656 3.01 3.28 5.24 6.45 5.24h84.934V31.552c0-1.115 1.531-1.226 1.749-.223l16.178 85.735h90.182v-98.11z"/><path d="M443.255 6.69c1.203 0 2.186 1.003 2.186 2.23v118.177c0 1.227-.983 2.23-2.186 2.23H8.745c-1.203 0-2.186-1.003-2.186-2.23V8.919c0-1.226.983-2.23 2.186-2.23h434.51zm0-6.69H8.745C3.935 0 0 4.014 0 8.92v118.177c0 4.906 3.935 8.919 8.745 8.919h434.51c4.81 0 8.745-4.013 8.745-8.919V8.919C452 4.014 448.065 0 443.255 0z"/></g><defs><clipPath id="clip0_1198_399"><path fill="#fff" transform="scale(4)" d="M0 0h113v41H0z"/></clipPath></defs></svg>