<?xml version="1.0" encoding="UTF-8"?> <svg xmlns="http://www.w3.org/2000/svg" width="492" height="135" viewBox="0 0 492 135" fill="none"> <g opacity="0.5"> <path fill-rule="evenodd" clip-rule="evenodd" d="M263.016 45.6899L266.594 45.6899C266.872 45.6899 267.139 45.5789 267.335 45.3812C267.532 45.1835 267.643 44.9154 267.643 44.6358V37.5312C267.643 37.2516 267.532 36.9835 267.335 36.7858C267.139 36.5881 266.872 36.4771 266.594 36.4771L263.037 36.4771C262.432 36.4785 261.833 36.3597 261.274 36.1277C260.714 35.8956 260.206 35.5548 259.778 35.1248C259.35 34.6948 259.011 34.1842 258.78 33.6221C258.549 33.06 258.431 32.4577 258.432 31.8496V19.5063H424.259C442.894 19.5063 452.211 19.5063 459.045 23.6733C462.8 25.9631 465.962 29.0888 468.279 32.8012C472.494 39.5568 472.494 48.7676 472.494 67.1892C472.494 85.6108 472.494 94.8216 468.279 101.577C465.962 105.289 462.8 108.415 459.045 110.705C452.211 114.872 442.894 114.872 424.259 114.872H67.7416C49.1067 114.872 39.7893 114.872 32.9555 110.705C29.2002 108.415 26.0383 105.289 23.722 101.577C19.5068 94.8216 19.5068 85.6108 19.5068 67.1892C19.5068 48.7676 19.5068 39.5568 23.722 32.8012C26.0383 29.0888 29.2002 25.9631 32.9555 23.6733C39.7893 19.5063 49.1067 19.5063 67.7415 19.5063H235.354V30.0787C235.355 30.4925 235.487 30.8952 235.733 31.2274C235.979 31.5595 236.324 31.8035 236.718 31.9234L251.289 36.4771L212.35 36.4771C207.463 36.4799 202.778 38.4324 199.324 41.9053C195.87 45.3783 193.929 50.0875 193.929 54.9976L193.929 82.7099C193.929 83.9372 193.444 85.1142 192.581 85.982C191.717 86.8499 190.546 87.3374 189.324 87.3374H181.152C180.874 87.3374 180.607 87.4485 180.411 87.6461C180.214 87.8438 180.104 88.1119 180.104 88.3915V95.5067C180.104 95.7862 180.214 96.0544 180.411 96.252C180.607 96.4497 180.874 96.5608 181.152 96.5608H198.534C203.421 96.558 208.106 94.6055 211.56 91.1325C215.014 87.6595 216.955 82.9504 216.955 78.0402L216.955 49.9274C216.958 48.701 217.444 47.5256 218.307 46.6583C219.17 45.7911 220.34 45.3027 221.56 45.2999L234.316 45.2999C234.594 45.2999 234.861 45.411 235.058 45.6086C235.254 45.8063 235.365 46.0744 235.365 46.354V78.6411C235.365 80.9943 235.826 83.3245 236.722 85.4987C237.618 87.6728 238.932 89.6482 240.588 91.3122C243.932 94.6728 248.468 96.5608 253.198 96.5608H266.594C266.872 96.5608 267.139 96.4497 267.335 96.2521C267.532 96.0544 267.643 95.7863 267.643 95.5067V88.3915C267.643 88.112 267.532 87.8438 267.335 87.6462C267.139 87.4485 266.872 87.3374 266.594 87.3374H263.037C262.432 87.3388 261.833 87.2201 261.274 86.988C260.714 86.756 260.206 86.4151 259.778 85.9852C259.35 85.5552 259.011 85.0445 258.78 84.4824C258.549 83.9204 258.431 83.318 258.432 82.7099L258.432 50.3174C258.431 49.7111 258.548 49.1105 258.778 48.5498C259.008 47.9891 259.345 47.4794 259.771 47.0496C260.196 46.6199 260.702 46.2787 261.259 46.0454C261.816 45.8121 262.413 45.6913 263.016 45.6899ZM115.622 78.0816L115.622 37.5303C115.621 37.2648 115.72 37.0087 115.899 36.8133C116.078 36.6179 116.324 36.4975 116.587 36.4762L137.567 36.4762C137.845 36.4762 138.112 36.5873 138.309 36.785C138.506 36.9827 138.616 37.2508 138.616 37.5303L138.616 83.3731C138.616 83.9844 138.736 84.5896 138.971 85.1538C139.205 85.718 139.548 86.23 139.98 86.6603C140.412 87.0905 140.924 87.4305 141.488 87.6606C142.051 87.8906 142.655 88.0062 143.263 88.0006H147.858C149.078 87.9979 150.248 87.5094 151.111 86.6422C151.974 85.775 152.46 84.5996 152.463 83.3731V37.5303C152.463 37.2508 152.573 36.9827 152.77 36.785C152.967 36.5873 153.234 36.4762 153.512 36.4762L174.492 36.4763C174.77 36.4763 175.037 36.5873 175.234 36.785C175.43 36.9827 175.541 37.2508 175.541 37.5304L175.541 78.0394C175.541 82.9495 173.6 87.6587 170.146 91.1317C166.692 94.6046 162.007 96.5571 157.12 96.5599H134.042C129.163 96.5572 124.484 94.6105 121.031 91.1466C117.578 87.6827 115.633 82.9844 115.622 78.0816ZM342.773 37.5314V95.5244C342.773 96.0968 343.242 96.5609 343.821 96.5609H364.802C365.381 96.5609 365.851 96.0969 365.851 95.5244V49.9065C365.851 48.7882 366.293 47.7158 367.08 46.925C367.867 46.1343 368.934 45.6901 370.047 45.6901L375.47 45.6901C376.583 45.6901 377.65 46.1343 378.437 46.925C379.224 47.7158 379.666 48.7882 379.666 49.9065L379.666 95.5244C379.666 96.0969 380.136 96.5609 380.715 96.5609L401.696 96.561C402.275 96.561 402.744 96.0969 402.744 95.5244V49.9065C402.744 48.7882 403.186 47.7158 403.973 46.9251C404.76 46.1343 405.827 45.6901 406.94 45.6901H412.363C413.476 45.6901 414.544 46.1343 415.33 46.9251C416.117 47.7158 416.559 48.7882 416.559 49.9065V95.5244C416.559 96.0969 417.029 96.561 417.608 96.561L438.536 96.561C439.116 96.561 439.585 96.0969 439.585 95.5244V54.9451C439.578 52.5112 439.094 50.1025 438.16 47.8567C437.226 45.611 435.861 43.5722 434.142 41.857C432.424 40.1419 430.385 38.7839 428.144 37.8608C425.903 36.9377 423.503 36.4676 421.081 36.4773L343.822 36.4773C343.544 36.4773 343.277 36.5883 343.08 36.786C342.883 36.9837 342.773 37.2518 342.773 37.5314ZM274.735 78.0817L274.735 54.9442C274.749 50.0414 276.697 45.3441 280.152 41.8822C283.607 38.4204 288.287 36.4763 293.166 36.4764L316.191 36.4764C321.069 36.4791 325.746 38.4244 329.199 41.886C332.652 45.3476 334.598 50.0432 334.612 54.9442V78.0395C334.612 82.9497 332.672 87.6588 329.217 91.1318C325.763 94.6048 321.078 96.5573 316.191 96.5601H293.166C288.285 96.5601 283.603 94.6146 280.148 91.1504C276.693 87.6863 274.746 82.9863 274.735 78.0817ZM302.376 87.3367H306.981C308.203 87.3367 309.374 86.8491 310.238 85.9813C311.101 85.1135 311.586 83.9365 311.586 82.7092V50.3167C311.586 49.0894 311.101 47.9124 310.238 47.0446C309.374 46.1767 308.203 45.6892 306.981 45.6892H302.376C301.771 45.6878 301.172 45.8065 300.612 46.0386C300.053 46.2707 299.545 46.6115 299.117 47.0415C298.689 47.4714 298.35 47.9821 298.119 48.5442C297.888 49.1062 297.77 49.7086 297.771 50.3167V82.7092C297.77 83.3173 297.888 83.9196 298.119 84.4817C298.35 85.0438 298.689 85.5544 299.117 85.9844C299.545 86.4144 300.053 86.7552 300.612 86.9873C301.172 87.2193 301.771 87.3381 302.376 87.3367ZM70.4333 36.7425L106.607 36.7425C106.885 36.7425 107.152 36.8535 107.348 37.0512C107.545 37.2489 107.656 37.517 107.656 37.7966V58.7837C107.656 59.0633 107.545 59.3314 107.348 59.5291C107.152 59.7268 106.885 59.8378 106.607 59.8378L65.8281 59.8378C64.6068 59.8378 63.4355 60.3254 62.5718 61.1932C61.7082 62.061 61.223 63.238 61.223 64.4653V68.9031C61.223 70.1313 61.7079 71.3094 62.5712 72.1789C63.4345 73.0484 64.6058 73.5383 65.8281 73.5411L106.607 73.5411C106.885 73.5411 107.152 73.6522 107.348 73.8499C107.545 74.0475 107.656 74.3157 107.656 74.5952V95.7721C107.656 96.0517 107.545 96.3198 107.348 96.5175C107.152 96.7151 106.885 96.8262 106.607 96.8262H70.4333C65.5541 96.8234 60.8752 94.8767 57.4222 91.4128C53.9692 87.949 52.0239 83.2506 52.0128 78.3478L52.0128 55.2103C52.0267 50.3093 53.9732 45.6137 57.4259 42.1521C60.8786 38.6905 65.556 36.7452 70.4333 36.7425Z" fill="#B8B8B8"></path> <path fill-rule="evenodd" clip-rule="evenodd" d="M425.056 1.39585e-06C435.569 -6.41828e-05 443.931 -0.000116765 450.665 0.575167C457.565 1.16448 463.434 2.39787 468.769 5.26491C476.385 9.35749 482.63 15.5935 486.728 23.1987C489.599 28.5266 490.834 34.388 491.424 41.2777C492 48.0031 492 56.3526 492 66.8514V67.5274C492 78.0262 492 86.3757 491.424 93.1012C490.834 99.9908 489.599 105.852 486.728 111.18C482.63 118.785 476.385 125.021 468.769 129.114C463.434 131.981 457.565 133.214 450.665 133.804C443.931 134.379 435.569 134.379 425.056 134.379H66.9444C56.4308 134.379 48.0695 134.379 41.3346 133.804C34.4354 133.214 28.5659 131.981 23.2307 129.114C15.6149 125.021 9.37039 118.785 5.27217 111.18C2.40117 105.852 1.16608 99.9908 0.57596 93.1012C-0.000116425 86.3756 -6.42713e-05 78.0259 1.39777e-06 67.5268L1.39777e-06 66.8521C-6.42713e-05 56.353 -0.000116926 48.0033 0.57596 41.2777C1.16608 34.388 2.40117 28.5266 5.27217 23.1987C9.37039 15.5935 15.6149 9.35749 23.2307 5.26491C28.5659 2.39787 34.4354 1.16448 41.3346 0.575167C48.0695 -0.000116264 56.4307 -6.41828e-05 66.9442 1.39585e-06L425.056 1.39585e-06ZM11.7524 26.6811C7.35898 34.8343 7.35898 45.6194 7.35898 67.1894C7.35898 88.7595 7.35898 99.5445 11.7524 107.698C15.1676 114.035 20.3714 119.232 26.7179 122.643C34.8824 127.03 45.6823 127.03 67.2821 127.03H424.718C446.318 127.03 457.118 127.03 465.282 122.643C471.629 119.232 476.832 114.035 480.248 107.698C484.641 99.5445 484.641 88.7595 484.641 67.1894C484.641 45.6194 484.641 34.8343 480.248 26.6811C476.832 20.3434 471.629 15.1468 465.282 11.7363C457.118 7.34885 446.318 7.34885 424.718 7.34885H67.2821C45.6822 7.34885 34.8824 7.34885 26.7179 11.7363C20.3714 15.1468 15.1676 20.3434 11.7524 26.6811Z" fill="#B8B8B8"></path> </g> </svg> 