<svg width="30" height="30" viewBox="0 0 30 30" fill="none" xmlns="http://www.w3.org/2000/svg">
<path d="M17.1834 15.021L29.5129 2.74501C30.104 2.15923 30.104 1.21089 29.5129 0.626608C28.9233 0.0408253 27.9655 0.0408253 27.3759 0.626608L15.0569 12.8921L2.62408 0.443831C2.03447 -0.147944 1.07672 -0.147944 0.487106 0.443831C-0.102509 1.0371 -0.102509 1.99743 0.487106 2.5892L12.9109 15.0285L0.442211 27.4423C-0.147404 28.028 -0.147404 28.9764 0.442211 29.5607C1.03183 30.1464 1.98957 30.1464 2.57919 29.5607L15.0374 17.1574L27.4208 29.5562C28.0104 30.1479 28.9682 30.1479 29.5578 29.5562C30.1474 28.9629 30.1474 28.0026 29.5578 27.4108L17.1834 15.021Z" fill="#EBEBEB"/>
</svg>
