<?xml version="1.0" encoding="UTF-8"?> <svg xmlns="http://www.w3.org/2000/svg" width="123" height="30" viewBox="0 0 123 30" fill="none"> <g opacity="0.5"> <rect x="1.64438" y="1.64438" width="119.711" height="26.3102" rx="11.5107" stroke="#B8B8B8" stroke-width="3.28877"></rect> <path fill-rule="evenodd" clip-rule="evenodd" d="M14.1417 5.91978C9.2376 5.91978 5.26203 9.89535 5.26203 14.7995C5.26203 19.7036 9.23759 23.6791 14.1417 23.6791H109.516C114.42 23.6791 118.396 19.7036 118.396 14.7995C118.396 9.89535 114.42 5.91978 109.516 5.91978H14.1417ZM54.8746 17.5777C54.0552 16.9382 53.6456 16.0523 53.6456 14.9198C53.6456 13.7874 54.0552 12.9014 54.8746 12.2619C55.694 11.6224 56.8331 11.3026 58.2919 11.3026C59.7508 11.3026 60.8899 11.6224 61.7093 12.2619C62.5286 12.9014 62.9383 13.7874 62.9383 14.9198C62.9383 16.0523 62.5286 16.9382 61.7093 17.5777C60.8899 18.2172 59.7508 18.537 58.2919 18.537C56.8331 18.537 55.694 18.2172 54.8746 17.5777ZM56.3934 13.5209C55.9471 13.8673 55.7239 14.3336 55.7239 14.9198C55.7239 15.506 55.9471 15.9757 56.3934 16.3287C56.8464 16.6751 57.4792 16.8483 58.2919 16.8483C59.1046 16.8483 59.7341 16.6751 60.1805 16.3287C60.6334 15.9757 60.8599 15.506 60.8599 14.9198C60.8599 14.3336 60.6334 13.8673 60.1805 13.5209C59.7341 13.1679 59.1046 12.9913 58.2919 12.9913C57.4792 12.9913 56.8464 13.1679 56.3934 13.5209ZM25.5836 11.4226H21.9465L20.1379 17.198L18.2893 11.4226H14.6522V18.4171H16.6406V12.5517L18.709 18.4171H21.5168L23.5852 12.5517V18.4171H25.5736L25.5836 11.4226ZM27.2595 11.4226V18.4171H34.5738V16.7984H29.3379V15.6193H33.2748V14.1005H29.3379V13.0413H34.384V11.4226H27.2595ZM41.9711 11.4226H44.0495V18.4171H41.9711V15.7092H37.9542V18.4171H35.8758V11.4226H37.9542V14.0105H41.9711V11.4226ZM45.1319 11.4226V13.1212H48.0796V18.4171H50.158V13.1212H53.1057V11.4226H45.1319ZM71.1377 12.0121C70.5914 11.6191 69.8986 11.4226 69.0593 11.4226H64.2131V18.4171H66.2915V16.0389H69.0593C69.9453 16.0389 70.6514 15.8624 71.1776 15.5094C71.7039 15.1496 71.967 14.5734 71.967 13.7807C71.967 12.988 71.6906 12.3985 71.1377 12.0121ZM69.8886 13.7807C69.8886 14.2204 69.5789 14.4402 68.9594 14.4402H66.2915V13.1212H68.9594C69.5789 13.1212 69.8886 13.3411 69.8886 13.7807ZM79.476 15.8391L81.4944 15.939C81.3545 16.7917 80.9315 17.4379 80.2254 17.8775C79.526 18.3172 78.5667 18.537 77.3477 18.537C75.8955 18.537 74.7697 18.2206 73.9703 17.5877C73.1709 16.9482 72.7712 16.0589 72.7712 14.9198C72.7712 13.7807 73.1609 12.8947 73.9403 12.2619C74.7197 11.6224 75.8122 11.3026 77.2178 11.3026C78.3702 11.3026 79.3061 11.5258 80.0256 11.9721C80.745 12.4118 81.1847 13.0113 81.3446 13.7707L79.3461 13.9006C79.2329 13.6275 78.9831 13.4077 78.5967 13.2411C78.2103 13.0746 77.7507 12.9913 77.2178 12.9913C76.4584 12.9913 75.8722 13.1679 75.4591 13.5209C75.0528 13.8673 74.8496 14.3336 74.8496 14.9198C74.8496 15.5127 75.0628 15.9823 75.4891 16.3287C75.9221 16.6751 76.5416 16.8483 77.3477 16.8483C77.9272 16.8483 78.3969 16.7551 78.7566 16.5685C79.1229 16.382 79.3628 16.1389 79.476 15.8391ZM81.9391 11.4226V13.1212H84.8868V18.4171H86.9651V13.1212H89.9128V11.4226H81.9391ZM96.8045 14.8499C98.29 14.9831 99.0328 15.536 99.0328 16.5086C99.0328 17.1015 98.7696 17.5678 98.2434 17.9075C97.7171 18.2472 96.9311 18.4171 95.8852 18.4171H90.989V11.4226H95.8852C96.7645 11.4226 97.4573 11.5958 97.9636 11.9421C98.4765 12.2885 98.733 12.7415 98.733 13.3011C98.733 14.1737 98.0902 14.69 96.8045 14.8499ZM93.0674 13.0213V14.1304H95.7853C96.0584 14.1304 96.2716 14.0805 96.4248 13.9806C96.578 13.8806 96.6546 13.7441 96.6546 13.5709C96.6546 13.2045 96.3648 13.0213 95.7853 13.0213H93.0674ZM95.6754 16.8183C96.135 16.8183 96.4614 16.775 96.6546 16.6884C96.8545 16.6018 96.9544 16.452 96.9544 16.2388C96.9544 16.019 96.8578 15.8657 96.6646 15.7792C96.4714 15.6926 96.175 15.6493 95.7753 15.6493H93.0674V16.8183H95.6754ZM99.8107 14.9198C99.8107 16.0523 100.22 16.9382 101.04 17.5777C101.859 18.2172 102.998 18.537 104.457 18.537C105.916 18.537 107.055 18.2172 107.874 17.5777C108.694 16.9382 109.103 16.0523 109.103 14.9198C109.103 13.7874 108.694 12.9014 107.874 12.2619C107.055 11.6224 105.916 11.3026 104.457 11.3026C102.998 11.3026 101.859 11.6224 101.04 12.2619C100.22 12.9014 99.8107 13.7874 99.8107 14.9198ZM102.559 16.3287C102.112 15.9757 101.889 15.506 101.889 14.9198C101.889 14.3336 102.112 13.8673 102.559 13.5209C103.012 13.1679 103.644 12.9913 104.457 12.9913C105.27 12.9913 105.899 13.1679 106.346 13.5209C106.799 13.8673 107.025 14.3336 107.025 14.9198C107.025 15.506 106.799 15.9757 106.346 16.3287C105.899 16.6751 105.27 16.8483 104.457 16.8483C103.644 16.8483 103.012 16.6751 102.559 16.3287Z" fill="#B8B8B8"></path> </g> </svg> 