<?xml version="1.0" encoding="UTF-8"?> <svg xmlns="http://www.w3.org/2000/svg" width="500" height="107" viewBox="0 0 500 107" fill="none"> <g opacity="0.5"> <path d="M0.00035131 97.67C0.680973 98.691 1.02141 99.3716 0.340787 100.393C0.000475931 99.3716 0.00035131 98.691 0.00035131 97.67Z" fill="#B8B8B8"></path> <path d="M475.415 0C475.415 0.340311 475.415 1.02094 475.074 1.36125C474.734 1.02094 474.734 1.02093 474.734 0.680624C474.734 0.340313 475.075 0 475.415 0C475.075 0 475.075 0 475.415 0Z" fill="#B8B8B8"></path> <path d="M488.688 17.697C488.348 17.697 488.348 17.3567 488.688 17.697C489.369 15.9954 490.05 14.6342 491.071 13.2729C491.071 13.6132 491.071 13.6132 491.411 13.9535C491.411 14.9745 492.092 15.3148 493.113 15.6551C493.793 15.6551 494.474 15.6551 495.154 15.9954C495.835 15.9954 496.176 16.3357 496.176 17.0163H495.835C495.495 17.3567 495.154 17.3567 495.154 17.3567C495.154 18.0373 496.176 18.3776 495.835 19.0582C495.155 19.0582 495.835 19.7388 495.495 20.0791C494.814 20.0791 494.814 19.3985 494.474 19.0582C494.134 18.3776 493.453 18.0373 493.113 17.3567C492.092 16.676 490.73 16.676 489.71 17.3567C489.369 17.3567 489.029 17.697 488.688 17.697Z" fill="#B8B8B8"></path> <path d="M474.052 39.4773C474.052 39.8176 474.052 39.8176 474.392 40.1579C474.392 40.1579 474.733 40.4982 474.392 40.4982C473.712 42.1998 472.69 43.9013 471.67 45.2626H471.329C470.989 45.2626 470.649 44.9222 470.989 44.5819C472.01 42.8804 472.691 41.1788 474.052 39.4773Z" fill="#B8B8B8"></path> <path d="M470.652 44.5812C470.652 44.9215 470.992 45.2619 471.332 45.2619C471.332 46.2828 470.652 46.9634 469.631 47.3037C469.29 47.3037 469.29 46.9634 469.29 46.6231C469.971 45.9425 470.311 45.2619 470.652 44.5812Z" fill="#B8B8B8"></path> <path d="M483.581 20.7599C483.581 20.4196 483.581 20.4196 483.241 20.0793C483.241 19.739 483.581 19.0584 484.262 19.0584C484.262 20.0793 483.922 20.4196 483.581 20.7599Z" fill="#B8B8B8"></path> <path d="M469.628 46.6231C469.628 46.9634 469.968 46.9634 469.968 47.3037C469.968 47.644 469.968 47.644 469.628 47.644C469.288 47.644 469.288 47.644 468.947 47.3037C469.288 46.6231 469.288 46.6231 469.628 46.6231Z" fill="#B8B8B8"></path> <path d="M455.676 34.032C450.571 34.032 445.467 34.032 440.362 34.032C439.001 34.032 437.98 34.3723 437.299 35.3932C436.619 36.4142 435.938 37.7754 435.257 38.7963C429.472 48.325 423.687 58.1941 417.902 67.7228C416.54 70.1049 415.179 72.4871 413.478 75.2096C413.478 74.1886 413.137 73.8483 413.137 73.1677C412.457 70.4452 412.116 68.0631 411.776 65.6809C411.095 61.9375 410.415 58.1941 409.734 54.4506C408.713 48.6654 407.692 42.5398 406.671 36.7545C406.331 35.7336 405.651 34.7126 404.289 34.3723C402.928 34.032 401.567 34.032 400.205 34.032C398.504 34.032 396.462 34.032 394.76 34.032C392.378 33.6917 389.996 33.6917 387.614 34.032C384.891 34.3723 383.19 36.7545 383.53 39.477C383.53 40.1576 384.211 40.8382 383.871 41.5188C365.834 29.2677 347.117 30.6289 328.4 39.1367C328.74 36.4142 326.698 33.6917 323.635 33.6917C317.169 33.6917 310.364 33.3514 303.898 33.3514C299.133 33.0111 294.028 33.3514 289.264 33.3514C287.222 33.3514 284.84 33.0111 282.458 33.3514C281.097 33.3514 280.076 34.032 279.736 35.3932C279.055 37.4351 278.374 39.477 278.034 41.5188C277.694 43.5607 277.013 45.6026 276.673 47.6444C276.332 46.9638 275.992 46.6235 275.652 46.2832C271.228 40.8382 265.783 37.0948 258.977 34.7126C251.83 32.3305 244.683 31.9901 237.197 32.6707C229.369 33.0111 221.883 35.3932 215.076 39.477C207.249 44.2413 202.145 50.7072 198.742 58.8747C197.04 62.6181 196.7 66.7018 196.359 70.7856C196.359 73.508 196.359 75.8902 197.04 78.6127C197.721 80.6546 198.061 82.6964 198.742 84.7383C195.338 84.7383 191.935 84.7383 188.532 84.7383C187.171 85.0786 187.171 84.398 187.511 83.377C187.852 81.3352 188.532 78.953 188.872 76.9111C190.914 68.7437 192.616 60.5762 194.658 52.4088C195.679 47.9847 196.7 43.2204 197.721 38.7963C198.401 37.0948 197.721 35.7336 196.7 34.7126C195.338 33.3514 193.977 33.0111 192.276 33.0111C188.532 33.0111 184.449 33.0111 180.705 33.0111C177.983 33.0111 176.962 33.6917 176.281 36.4142C175.26 41.5188 173.899 46.2832 172.878 51.3878C172.538 53.0894 172.197 55.1313 171.517 56.8328C171.176 56.4925 171.176 55.8119 171.176 55.4716C169.475 50.3669 166.752 45.9429 162.669 42.1995C158.585 38.456 154.501 35.7335 149.396 34.3723C138.166 30.9692 126.936 31.3095 116.046 34.3723C109.92 36.0739 104.476 39.1367 99.7112 43.5607C98.35 44.9219 96.6482 46.2832 95.287 47.9847C95.9676 45.6026 96.3079 43.2204 96.9885 40.8382C97.3289 39.477 97.6692 38.456 97.6692 37.0948C97.6692 35.0529 95.9677 33.0111 93.9259 33.0111C90.8631 33.0111 87.8002 32.6707 84.7374 32.6707C81.3343 32.6707 77.9312 32.6708 74.5281 33.0111C72.8266 33.3514 71.4653 34.032 70.4444 35.3932C67.3816 40.4979 64.6592 45.6026 61.5964 50.3669C57.1723 57.1731 52.7483 64.3196 48.6646 71.4662C48.3243 71.8065 47.9839 72.4871 47.3033 72.8274C47.3033 71.8065 46.963 70.7855 46.963 69.7646C46.2824 64.66 45.6017 59.8956 44.9211 55.1313C44.5807 51.3879 43.9001 47.6444 43.2195 43.901C42.8792 41.1785 42.8793 38.1157 41.8584 35.3932C41.1778 33.6917 40.4971 33.0111 38.7955 33.0111C37.4343 33.0111 36.073 33.0111 34.7117 33.0111C29.6071 33.0111 24.8428 33.0111 19.7382 33.0111C15.3141 33.0111 14.9738 33.3514 13.9529 37.4351C11.911 45.2622 10.2093 53.0894 8.50777 60.9165C5.78528 73.1677 2.72249 85.4189 0 97.6701C0 98.691 0 99.3716 0 100.393C1.02093 102.094 2.04191 103.455 2.38222 104.476C6.80626 104.817 11.5707 104.817 16.3351 104.476C18.0366 104.136 19.0574 103.455 19.3978 101.754C20.759 95.6282 22.4605 89.5026 23.8217 83.377C24.5024 81.3352 24.8427 78.953 25.5233 76.5708C25.8636 77.2515 25.8637 77.5918 25.8637 78.2724C26.5444 83.0367 27.2249 87.8011 27.9055 92.5655C28.2458 95.2879 28.9265 98.3507 29.2668 101.073C29.6072 103.115 30.9683 104.136 32.3295 104.476C33.3504 104.476 34.0312 104.476 35.0522 104.476C38.4553 104.476 42.1986 104.476 45.6017 104.476C47.6436 104.476 49.0048 103.796 50.0257 102.094C54.4498 94.6073 59.2141 87.1205 63.6381 79.6336C63.9785 79.2933 64.3188 78.6127 64.9995 78.2724C63.6382 85.0786 61.9366 91.8848 60.235 98.3507C59.5544 101.073 61.2559 104.817 64.659 104.817C69.0831 104.817 73.167 104.817 77.591 104.817C80.6538 104.817 81.3344 104.476 82.015 101.414C82.6956 98.691 83.3762 95.6282 84.0568 92.9058C84.7374 89.1623 85.418 85.0786 86.7792 80.9949C86.7792 81.6755 87.1197 82.0158 87.1197 82.3561C87.8003 85.0786 88.8212 87.8011 90.5228 90.1833C94.9468 96.9895 101.072 101.073 108.559 103.796C112.983 105.497 117.407 105.838 121.831 106.178C127.276 106.518 132.721 106.178 138.166 105.157C144.632 104.136 150.417 101.414 155.522 97.6701C157.904 95.6282 159.946 93.5864 161.988 91.5445C161.988 91.2042 162.328 90.5236 162.669 90.8639C163.009 91.2042 162.669 91.5445 162.669 91.8848C161.988 94.267 161.648 96.6492 160.967 99.0313C160.287 101.414 162.669 104.476 165.391 104.476C168.114 104.476 171.176 104.476 173.899 104.476C178.663 104.476 183.428 104.476 188.192 104.476C190.914 104.476 193.296 104.476 195.679 104.476C197.38 104.476 199.422 104.476 201.124 104.476C203.506 104.476 204.527 103.455 205.208 101.073C205.548 99.712 205.888 98.3507 206.228 96.9895C214.736 102.775 217.118 103.796 224.945 105.157C236.516 106.858 248.087 105.838 258.977 100.733C264.081 98.3507 268.505 94.9476 272.249 90.5236C276.332 85.7592 279.055 80.3143 280.416 74.1887C281.097 69.7646 281.777 65.0003 280.756 60.2359C280.076 57.5134 279.055 55.1313 278.374 52.4088C281.777 53.0894 285.181 53.0894 288.584 53.0894C288.243 54.4506 287.903 56.1522 287.563 57.5134C285.521 66.0212 283.479 74.529 281.437 83.0367C280.076 88.1414 279.055 93.2461 277.693 98.3507C276.672 101.414 279.055 104.817 282.118 104.817C286.542 104.817 290.966 104.817 295.39 104.817C297.432 104.817 298.112 104.136 298.793 102.094C299.474 100.733 299.814 99.3717 300.154 97.6701C301.516 92.5655 302.536 87.8011 303.557 82.6964C305.599 73.8484 307.981 64.66 310.023 55.8119C310.704 52.7491 310.704 52.7491 313.767 53.4297C314.107 53.4297 314.107 53.4297 314.107 53.4297C313.426 54.791 312.405 56.1522 311.725 57.8537C308.662 65.6809 307.641 73.8483 310.023 82.0158C311.725 88.4817 315.128 93.5864 320.232 97.6701C326.358 102.775 333.845 105.157 342.012 105.838C349.159 106.178 356.306 105.838 363.112 104.136C374.342 101.073 383.19 94.9476 388.975 85.0786C389.656 84.0577 390.677 82.6964 391.357 81.3352C392.378 87.8011 393.739 94.267 395.101 100.733C395.781 103.796 396.802 104.476 399.865 104.476C400.546 104.476 400.886 104.476 401.567 104.476C405.991 104.476 410.075 104.476 414.499 104.476C417.221 104.476 419.263 104.136 420.624 101.754C424.708 95.2879 428.792 88.822 432.875 82.3561C437.299 75.2096 441.724 67.7228 446.488 60.5762C450.572 54.1103 454.655 47.6444 459.079 41.1785C461.121 38.7963 458.739 34.032 455.676 34.032ZM148.376 77.2515C145.653 80.9949 142.25 83.7174 137.486 85.0786C132.381 86.4398 127.276 87.1205 121.831 85.7592C116.046 84.398 112.303 81.3352 110.601 75.5499C109.92 74.1887 109.58 72.8274 109.921 71.1259C110.261 65.6809 111.962 60.9165 116.046 57.1731C119.109 54.4506 122.852 52.4088 126.936 51.7282C132.381 50.7072 137.486 50.3669 142.59 52.0685C148.376 54.1103 151.779 59.215 151.779 65.3406C151.779 69.7646 150.758 73.508 148.376 77.2515ZM254.553 80.6546C250.129 84.398 244.683 85.7592 238.898 85.7592C238.558 86.4399 238.218 86.4398 237.877 86.4398C234.474 86.4398 231.411 86.4398 228.349 84.7383C222.904 82.3561 220.181 77.9321 219.841 71.8065C219.501 61.9375 226.307 53.77 235.835 51.7282C240.94 50.7072 246.045 50.3669 251.149 51.7282C257.275 53.4297 261.018 57.1731 261.359 63.639C262.039 70.4453 259.998 76.2305 254.553 80.6546ZM374.002 67.3825C373.661 72.8274 371.619 77.2515 367.536 80.9949C363.792 84.398 359.028 85.7592 353.923 86.4398C353.242 86.4398 351.881 86.4398 350.86 86.4398C347.117 86.4398 343.374 86.0995 339.97 84.0577C334.866 80.9949 332.484 76.5708 332.824 70.7856C333.164 65.6809 334.866 60.9165 338.269 57.1731C340.651 54.4506 344.054 53.0894 347.457 52.0685C353.242 50.7072 359.028 50.3669 364.473 52.0685C371.619 54.4506 374.682 60.2359 374.002 67.3825Z" fill="#B8B8B8"></path> <path d="M490.047 26.5445C489.707 26.5445 489.367 26.2042 489.027 25.8639C489.707 25.8639 490.388 26.2042 490.728 26.2042C490.388 26.2042 490.388 26.2042 490.047 26.5445Z" fill="#B8B8B8"></path> <path d="M478.819 8.16767C478.819 8.16767 479.159 8.16767 478.819 8.16767C479.499 7.48704 479.839 7.48705 480.18 7.82736C479.839 8.16767 479.499 8.16767 478.819 8.16767C479.159 8.16767 479.159 8.16767 478.819 8.16767Z" fill="#B8B8B8"></path> <path d="M480.18 7.82791C479.839 7.82791 479.499 7.82791 479.159 7.82791C479.499 7.4876 479.839 7.14729 480.18 7.82791Z" fill="#B8B8B8"></path> <path d="M498.556 9.18985C498.556 8.84954 498.216 8.50923 497.876 8.16892C493.111 3.40457 483.582 2.38365 478.137 6.12706C476.776 7.148 475.415 8.16892 474.054 9.18985C472.693 10.2108 471.672 10.2108 470.651 9.18985C469.97 8.50923 469.63 7.82861 470.651 7.14799C473.033 5.78675 474.054 3.40458 475.075 1.0224C474.734 1.0224 475.075 0.341779 474.734 0.341779C473.373 2.72395 471.671 4.08519 469.97 4.76582C467.928 5.10613 466.227 6.46737 465.206 8.16892C464.866 8.84954 464.185 9.53016 463.164 9.18985C462.483 8.50923 462.823 7.82861 462.823 7.14799C462.823 7.14799 462.823 7.14799 462.823 6.80767C461.803 7.14799 461.802 8.16892 461.462 9.18985C461.122 10.2108 460.441 11.2317 459.08 11.572C458.399 11.9123 458.059 12.2526 457.719 12.593C456.698 14.6348 454.656 16.3364 453.295 18.0379C452.614 19.0589 451.253 20.0798 451.593 21.441C452.274 25.8651 454.996 29.9488 459.761 30.9697C461.122 31.31 462.483 31.6504 463.504 33.0116C463.845 33.3519 464.185 34.0325 464.865 34.3728C466.226 35.7341 467.928 35.7341 469.63 34.7132C470.31 34.3729 470.651 33.6922 471.331 33.3519C472.352 31.9907 473.714 30.9697 475.415 30.2891C477.117 29.9488 478.478 28.5876 479.499 27.2263C479.158 27.2263 478.818 27.2263 478.818 27.2263C477.797 27.5666 477.117 27.2263 477.117 26.2054C477.117 25.1845 477.797 24.5038 478.818 24.5038C479.159 24.5038 479.499 24.5038 479.839 24.5038C482.221 24.5038 483.583 23.1426 484.263 21.1007C484.263 20.7604 484.263 20.4201 483.923 20.4201C483.242 21.441 482.902 22.1217 481.881 22.8023C481.2 23.4829 480.86 23.1426 480.179 22.8023C479.499 22.462 479.839 21.7814 480.179 21.441C480.52 21.1007 480.86 20.4201 481.2 20.0798C483.242 18.0379 485.284 16.3364 486.305 13.6139C486.645 12.593 487.666 12.2526 488.687 12.593C489.708 12.9333 490.389 12.9333 491.069 12.2527C491.41 12.2527 491.75 11.9123 492.09 12.2527C492.43 12.593 491.75 12.9333 491.75 13.2736C491.41 13.2736 491.41 13.2736 491.41 13.6139C493.792 12.9333 495.494 13.6139 497.535 14.9751C498.216 15.3154 498.216 15.6558 497.876 16.3364V16.6767C497.535 17.3573 497.195 17.017 496.855 17.017H496.514C496.514 17.017 496.855 17.3573 496.855 17.6976C497.195 18.0379 497.535 18.7185 497.195 19.0589V19.3992C497.195 20.0798 496.514 19.3992 496.174 19.3992C495.834 19.3992 495.834 19.3992 495.834 19.7395C495.834 20.7604 495.834 20.7604 495.493 20.7604C495.153 21.1007 494.813 21.1007 494.132 21.1007C492.431 20.4201 491.069 20.0798 489.368 19.7395C488.687 19.7395 488.687 19.7395 488.687 19.3992C488.347 19.3992 488.347 19.0589 488.347 18.7185C488.347 18.3782 488.347 18.3782 488.347 18.0379C486.986 20.4201 485.284 22.462 484.944 25.1845C484.944 26.2054 484.604 26.886 483.923 27.5666C482.902 28.5876 482.221 29.6085 481.2 30.6294C478.478 33.6922 476.096 37.0953 474.054 40.4984C473.714 40.8388 473.714 40.8387 473.714 41.179C474.054 40.8387 474.054 40.4984 474.394 40.1581C474.734 40.1581 475.075 39.4775 475.415 39.8178C475.756 40.1581 475.415 40.4984 475.415 40.8387C474.394 42.8806 473.373 45.2628 472.012 47.3047C471.331 48.3256 470.651 49.0062 469.63 49.3465C466.227 50.7078 463.504 52.4093 461.462 55.4721C461.122 55.8124 461.122 56.1527 460.441 55.8124C460.101 55.4721 460.101 55.1318 460.101 54.7915C461.462 52.069 463.504 49.6868 466.567 49.0062C467.588 48.6659 468.269 47.9853 469.289 47.645L468.949 47.3047C467.928 47.645 466.907 47.9853 465.886 48.3256C463.504 49.0062 461.803 50.3674 460.441 52.4093C459.08 54.4512 457.719 56.493 456.357 58.8752C453.295 63.6396 450.572 68.7442 447.85 73.5086C445.468 77.252 443.086 80.9954 441.384 84.7388C440.023 87.4613 440.363 88.8226 442.405 91.2047C446.829 95.6288 452.274 98.3512 458.4 100.393C459.761 100.733 460.782 100.393 461.803 99.0319C464.866 94.6078 467.588 89.8435 470.311 85.4194C473.714 79.2938 477.457 73.1683 480.86 67.0427C482.562 64.6605 483.582 61.5977 482.902 58.5349C482.562 56.4931 482.561 54.4512 483.582 52.7496C484.603 50.3674 485.964 48.3256 486.985 45.9434C489.368 41.5194 491.75 37.0953 492.771 32.331C493.111 31.31 493.452 30.6294 494.132 29.9488C497.195 26.886 498.556 23.4829 499.577 19.3992C500.598 15.9961 499.577 12.593 498.556 9.18985ZM497.535 11.9123C497.195 12.9333 496.855 13.2736 495.834 12.9333C494.473 12.2527 493.452 11.572 492.771 10.2108C491.75 8.16892 489.708 6.80768 488.007 5.78674C486.645 5.10612 485.284 5.78675 483.582 6.12706C484.263 6.80768 485.284 7.14799 486.305 7.4883C486.986 7.4883 487.666 7.82861 488.347 8.16892C489.368 8.84954 489.368 9.53017 489.028 10.5511C488.687 11.572 488.006 11.572 486.985 11.2317C485.624 10.8914 484.603 10.2108 483.582 9.87048V10.2108C484.603 11.572 484.603 12.2526 482.902 12.593C481.881 12.9333 480.86 12.9333 479.499 12.593C480.52 11.9123 479.158 10.8914 480.179 10.2108L479.839 9.87048C478.137 9.18985 479.159 8.84954 478.818 8.16892C478.138 8.16892 477.457 8.84954 476.776 8.50923C479.499 5.44643 484.263 4.08519 488.347 4.76582C491.41 5.10613 494.132 6.12705 496.174 8.50923C497.195 9.53016 497.876 10.5511 497.535 11.9123ZM445.127 84.3985C444.107 86.1001 443.766 87.8016 442.745 89.1629C442.064 87.4613 442.745 86.4404 443.086 85.0791C443.086 84.7388 443.426 84.0582 443.766 83.7179C444.106 83.3776 444.107 83.0373 444.787 83.3776C445.128 83.7179 445.468 84.0582 445.127 84.3985ZM492.771 25.5248C492.431 26.5457 491.41 26.5457 490.729 26.2054C490.389 25.8651 490.048 25.8651 490.048 26.5457C490.389 27.2263 491.069 27.2263 491.41 28.2473C489.368 27.9069 487.666 26.886 486.305 25.5248C485.965 25.1845 485.625 24.1635 485.625 23.4829C485.625 22.462 486.305 21.7813 487.326 22.1217C488.687 22.462 490.389 23.1426 491.75 23.8232C492.43 24.1635 493.111 24.5038 492.771 25.5248ZM494.132 24.1635C492.09 23.1426 490.048 21.7813 487.666 20.7604L487.326 20.4201C487.326 20.0798 487.666 20.0798 487.666 20.0798C489.708 20.0798 492.09 20.0798 493.451 22.1217C494.472 22.462 495.153 22.462 495.493 23.8232C495.493 24.5038 494.813 24.5038 494.132 24.1635Z" fill="#B8B8B8"></path> </g> </svg> 