<?xml version="1.0" encoding="UTF-8"?> <svg xmlns="http://www.w3.org/2000/svg" width="500" height="52" viewBox="0 0 500 52" fill="none"> <g opacity="0.5"> <path d="M41.838 52C70.8192 52 76.4307 43.4345 76.4307 34.7341V33.7899C76.4307 23.5383 68.9013 19.0195 48.515 18.4799L38.4285 18.2776C29.4784 18.0752 27.6316 16.7938 27.6316 14.8379V14.7704C27.6316 12.9494 28.7681 11.6005 37.0078 11.6005H37.363C46.313 11.6005 47.3075 14.4332 47.5206 16.2542H74.5128V15.7821C74.5128 7.48638 68.191 0 40.7725 0L32.959 0C7.88458 0 0.852387 6.40726 0.852387 15.2425V15.8495C0.852387 23.7406 5.75361 30.8898 26.9923 31.4293L37.505 31.6991C47.5206 32.0363 48.515 33.655 48.515 35.7458V35.8807C48.515 37.9715 46.8103 39.9274 38.2864 39.9274H38.0023C28.697 39.9274 27.6316 36.1504 27.4185 33.7899H0L0 34.3969C0 40.8716 3.05439 52 33.8114 52H41.838Z" fill="#B8B8B8"></path> <path d="M108.021 51.0558H131.959V32.6433H162.289V51.0558H186.298V0.876784H162.289V18.0078H131.959V0.876784H108.021V51.0558Z" fill="#B8B8B8"></path> <path d="M243.743 51.0558V29.8781L267.254 51.0558H298.509L266.899 23.5383L298.011 0.876784H268.604L243.743 19.559V0.876784H219.805V51.0558H243.743Z" fill="#B8B8B8"></path> <path d="M373.504 30.2827H358.587L365.974 14.8379L373.504 30.2827ZM383.59 51.0558H410.156L383.093 0.876784H349.992L324.563 51.0558H348.785L352.052 44.1089H380.252L383.59 51.0558Z" fill="#B8B8B8"></path> <path d="M439.836 0.876784V51.0558H463.418V32.3735H499.361V19.1543H463.418V14.1634H500V0.876784L439.836 0.876784Z" fill="#B8B8B8"></path> </g> </svg> 