<?xml version="1.0" encoding="UTF-8"?> <svg xmlns="http://www.w3.org/2000/svg" width="452" height="164" viewBox="0 0 452 164" fill="none"> <g opacity="0.5" clip-path="url(#clip0_1198_399)"> <path d="M283.116 164.001C275.027 164.001 274.043 160.433 274.043 158.426V158.203H279.071C279.18 159.207 279.727 160.656 283.662 160.656H283.99C288.034 160.656 288.472 159.875 288.472 158.984C288.472 158.092 288.035 157.534 284.427 157.423L281.804 157.311C276.01 157.088 274.261 155.193 274.261 152.74V152.517C274.261 150.176 275.682 147.723 282.678 147.723H284.099C291.423 147.723 293.063 150.287 293.063 152.74V152.963H288.034C287.925 152.406 287.597 151.068 283.553 151.068H283.225C279.508 151.068 279.18 151.737 279.18 152.406C279.18 153.075 279.618 153.744 282.788 153.744H285.411C291.205 153.855 293.609 155.304 293.609 158.426V158.761C293.609 161.325 292.298 164.001 284.537 164.001H283.116Z" fill="#B8B8B8"></path> <path d="M308.694 151.736H302.026V148.057H320.281V151.736H313.613V163.777H308.694V151.736Z" fill="#B8B8B8"></path> <path d="M339.411 164.001C331.103 164.001 329.791 158.649 329.791 155.639V147.946H334.601V155.304C334.601 157.311 335.475 159.875 339.738 159.875C343.892 159.875 344.767 157.311 344.767 155.304V147.946H349.576V155.639C349.576 158.649 348.046 164.001 340.066 164.001H339.411Z" fill="#B8B8B8"></path> <path d="M359.634 147.946H369.909C378.872 147.946 380.84 151.848 380.84 155.416V156.085C380.84 159.43 378.982 163.778 370.018 163.778H359.634V147.946ZM364.443 159.987H369.471C374.937 159.987 375.702 157.534 375.702 155.973V155.862C375.702 154.301 375.046 151.848 369.471 151.848H364.443V159.987Z" fill="#B8B8B8"></path> <path d="M395.159 163.777H390.349V148.057H395.159V163.777Z" fill="#B8B8B8"></path> <path d="M416.584 147.723C426.312 147.723 427.405 152.74 427.405 155.527V156.196C427.405 158.983 426.312 164.111 416.584 164.111H415.709C405.981 164.111 404.887 158.983 404.887 156.196V155.527C404.887 152.74 405.981 147.723 415.709 147.723H416.584ZM422.377 155.638C422.377 153.854 421.393 151.513 416.146 151.513C410.79 151.513 409.916 153.854 409.916 155.638V155.861C409.916 157.645 410.9 160.098 416.146 160.098C421.284 160.098 422.377 157.645 422.377 155.861V155.638Z" fill="#B8B8B8"></path> <path d="M426.859 18.9536H378.762V105.246C378.762 106.361 377.231 106.472 377.013 105.357L361.928 23.9706C361.163 20.9604 358.539 18.9536 355.588 18.9536H318.641H312.629H277.103C273.496 18.9536 270.544 21.9638 270.544 25.6429V104.354C270.544 105.469 269.014 105.58 268.795 104.577L253.492 24.4165C252.945 21.2949 250.212 18.9536 247.042 18.9536H210.314H204.411H168.339H167.464H156.314H150.302H108.218L87.9953 109.928C87.7766 110.82 86.4649 110.82 86.2463 109.928L66.1331 18.9536H18.0364L40.8823 112.047C41.6475 115.057 44.271 117.064 47.2223 117.064H84.1694H90.1815H127.129C130.189 117.064 132.813 114.945 133.469 112.047L153.8 28.8761C154.347 26.6463 156.314 25.0855 158.61 25.0855H160.796L138.278 117.064H186.375L206.597 26.0889C206.816 25.197 208.128 25.197 208.346 26.0889L227.366 111.824C228.022 114.834 230.646 117.064 233.816 117.064H270.654H276.666H318.75V31.5518C318.75 30.4369 320.281 30.3255 320.499 31.3289L336.677 117.064H378.762H384.774H426.859V18.9536Z" fill="#B8B8B8"></path> <path d="M443.255 6.68933C444.458 6.68933 445.441 7.69273 445.441 8.9191V127.097C445.441 128.324 444.458 129.327 443.255 129.327H8.74486C7.54244 129.327 6.55865 128.324 6.55865 127.097V8.9191C6.55865 7.69273 7.54244 6.68933 8.74486 6.68933H443.255ZM443.255 0L8.74486 0C3.93519 0 0 4.0136 0 8.9191L0 127.097C0 132.003 3.93519 136.016 8.74486 136.016H443.255C448.065 136.016 452 132.003 452 127.097V8.9191C452 4.0136 448.065 0 443.255 0Z" fill="#B8B8B8"></path> </g> <defs> <clipPath id="clip0_1198_399"> <rect width="113" height="41" fill="white" transform="scale(4)"></rect> </clipPath> </defs> </svg> 